<svg width="318" height="90" viewBox="0 0 318 90" fill="none" xmlns="http://www.w3.org/2000/svg">
<path fill-rule="evenodd" clip-rule="evenodd" d="M69.8481 90.0001L114.328 45.1293L69.8481 0.258465L55.5357 14.6968C49.9258 11.1073 43.2577 9.02642 36.1035 9.02642C16.1642 9.02642 0.000165883 25.1904 0.00016414 45.1298C0.000162397 65.0691 16.1642 81.2331 36.1035 81.2331C43.2579 81.2331 49.9262 79.1521 55.5362 75.5623L69.8481 90.0001ZM55.5362 75.5623C65.5614 69.1475 72.2068 57.9147 72.2068 45.1298C72.2068 32.3446 65.5611 21.1116 55.5357 14.6968L25.3686 45.1293L55.5362 75.5623Z" fill="black"/>
<path d="M143.09 71V30.3476H149.083V65.8011H170.384V71H143.09ZM179.247 38.2182C177.948 38.2663 177.081 37.9534 176.648 37.2795C176.215 36.6056 175.998 35.7631 175.998 34.7522C175.998 33.8858 176.215 33.1156 176.648 32.4416C177.081 31.7677 177.948 31.4307 179.247 31.4307C180.499 31.4307 181.341 31.7677 181.774 32.4416C182.256 33.1156 182.497 33.8858 182.497 34.7522C182.497 35.7631 182.256 36.6056 181.774 37.2795C181.341 37.9053 180.499 38.2182 179.247 38.2182ZM176.215 71V41.4675H182.208V71H176.215ZM200.937 71.7221C198.723 71.7221 196.629 71.2407 194.655 70.2779C192.729 69.3152 191.165 68.0395 189.961 66.451C188.806 64.8143 188.228 63.0573 188.228 61.1799H193.861C193.861 61.2762 193.885 61.6372 193.933 62.263C193.981 62.8888 194.198 63.5868 194.583 64.357C194.968 65.1272 195.642 65.8011 196.604 66.3788C197.615 66.9564 199.035 67.2453 200.865 67.2453C202.886 67.2453 204.523 66.8842 205.775 66.1622C207.026 65.4401 207.652 64.4292 207.652 63.1295C207.652 61.926 207.195 60.9873 206.28 60.3134C205.366 59.6395 204.186 59.11 202.742 58.7249C201.298 58.2916 199.757 57.8825 198.121 57.4974C196.532 57.1122 195.016 56.6068 193.572 55.981C192.176 55.3071 191.02 54.4165 190.106 53.3094C189.239 52.1541 188.83 50.6136 188.878 48.6881C188.878 46.0887 189.961 44.091 192.128 42.695C194.342 41.2508 197.134 40.5288 200.504 40.5288C202.67 40.5288 204.74 40.8898 206.713 41.6119C208.687 42.2858 210.3 43.393 211.551 44.9334C212.851 46.4738 213.477 48.5437 213.429 51.1432H207.869C207.917 49.5065 207.532 48.279 206.713 47.4606C205.943 46.5941 204.98 46.0165 203.825 45.7277C202.67 45.3907 201.587 45.2222 200.576 45.2222C198.65 45.2222 197.134 45.5832 196.027 46.3053C194.92 46.9792 194.366 47.8939 194.366 49.0492C194.366 50.3008 194.823 51.2635 195.738 51.9374C196.653 52.5632 197.832 53.0927 199.276 53.526C200.72 53.9111 202.237 54.2962 203.825 54.6813C205.462 55.0664 207.002 55.5718 208.446 56.1976C209.89 56.8234 211.07 57.714 211.984 58.8693C212.947 60.0246 213.429 61.565 213.429 63.4905C213.429 66.3306 212.249 68.4246 209.89 69.7725C207.532 71.0722 204.547 71.7221 200.937 71.7221ZM235.609 71.7221C233.78 71.7221 232.215 71.4332 230.916 70.8556C229.616 70.2298 228.557 69.5077 227.739 68.6894C226.92 67.871 226.318 67.1249 225.933 66.451C225.548 65.7289 225.308 65.2716 225.211 65.0791H225.067L224.128 71H218.929V30.3476H225.067L225.139 48.3993H225.283C225.332 48.2068 225.524 47.7495 225.861 47.0274C226.246 46.3053 226.824 45.511 227.594 44.6446C228.364 43.7781 229.399 43.0319 230.699 42.4062C231.999 41.7804 233.635 41.4675 235.609 41.4675C239.893 41.4675 243.046 42.8875 245.068 45.7277C247.138 48.5678 248.173 52.2263 248.173 56.7031C248.173 61.1318 247.138 64.7421 245.068 67.5341C243.046 70.3261 239.893 71.7221 235.609 71.7221ZM233.876 66.5232C235.994 66.5232 237.655 66.0659 238.858 65.1513C240.11 64.1885 240.976 62.961 241.458 61.4687C241.987 59.9283 242.252 58.3157 242.252 56.6309C242.252 54.9942 241.963 53.4297 241.386 51.9374C240.856 50.4452 239.941 49.2417 238.642 48.3271C237.39 47.3643 235.705 46.883 233.587 46.883C230.795 46.883 228.701 47.7976 227.305 49.6268C225.909 51.4079 225.211 53.7426 225.211 56.6309C225.211 59.6154 225.933 62.0223 227.377 63.8515C228.87 65.6326 231.036 66.5232 233.876 66.5232ZM267.117 71.7221C262.206 71.7221 258.548 70.302 256.141 67.4619C253.734 64.6217 252.531 61.0114 252.531 56.6309C252.483 52.2022 253.686 48.5678 256.141 45.7277C258.596 42.8875 262.255 41.4434 267.117 41.3953C271.834 41.3953 275.42 42.7913 277.875 45.5832C280.33 48.3752 281.558 52.0578 281.558 56.6309C281.558 59.471 281.028 62.0464 279.969 64.357C278.958 66.6195 277.37 68.4246 275.204 69.7725C273.086 71.0722 270.39 71.7221 267.117 71.7221ZM267.117 66.5954C269.427 66.5954 271.184 66.0899 272.388 65.0791C273.639 64.0682 274.506 62.7925 274.987 61.2521C275.468 59.6636 275.709 58.0509 275.709 56.4143C275.709 54.7776 275.468 53.189 274.987 51.6486C274.506 50.0601 273.639 48.7603 272.388 47.7494C271.184 46.6904 269.427 46.1609 267.117 46.1609C264.758 46.1609 262.953 46.6904 261.701 47.7494C260.449 48.7603 259.583 50.0601 259.102 51.6486C258.62 53.189 258.38 54.7776 258.38 56.4143C258.38 58.0509 258.62 59.6636 259.102 61.2521C259.583 62.7925 260.449 64.0682 261.701 65.0791C262.953 66.0899 264.758 66.5954 267.117 66.5954ZM287.034 71V41.5397H292.161L293.172 48.3271H293.316C293.364 48.1346 293.557 47.6772 293.894 46.9552C294.231 46.2331 294.784 45.4629 295.555 44.6446C296.325 43.7781 297.36 43.0319 298.66 42.4062C299.959 41.7804 301.596 41.4675 303.57 41.4675C306.169 41.4675 308.191 41.9729 309.635 42.9838C311.079 43.9466 312.138 45.2222 312.812 46.8108C313.486 48.3512 313.895 49.9879 314.04 51.7208C314.232 53.4538 314.328 55.0664 314.328 56.5587V71H308.48V56.4865C308.48 54.6572 308.287 53.0205 307.902 51.5764C307.517 50.0841 306.795 48.9288 305.736 48.1105C304.725 47.244 303.233 46.8108 301.259 46.8108C299.237 46.8108 297.625 47.2921 296.421 48.2549C295.218 49.2177 294.375 50.4692 293.894 52.0096C293.413 53.5501 293.172 55.1867 293.172 56.9197V71H287.034Z" fill="black"/>
</svg>
