<svg width="633" height="91" viewBox="0 0 633 91" fill="none" xmlns="http://www.w3.org/2000/svg">
<g clip-path="url(#clip0_1124_1544)">
<path d="M120.727 73.1951V47.8379C120.727 40.2061 123.213 34.2976 132.08 34.2976C135.643 34.2976 138.626 35.5285 140.615 38.5648C142.459 41.5032 142.519 44.2878 142.521 47.5881L142.521 73.1951H151.139V47.8379C151.139 40.3702 153.127 34.2976 162.077 34.2976C170.529 34.2976 172.932 40.7805 172.932 47.9199V73.1951H181.55V45.7863C181.55 34.0514 175.004 26.5017 162.822 26.5017C156.11 26.5017 151.221 28.5532 147.658 34.1334C145.255 29.0456 138.792 26.5017 133.406 26.5017C127.356 26.5017 124.042 28.225 120.23 32.6563H120.064V27.7326H112.109V73.1951H120.727ZM211.299 74.344C225.22 74.344 236.075 63.2656 236.075 50.2997C236.075 36.8415 224.723 26.5017 211.299 26.5017C198.041 26.5017 186.522 36.7594 186.522 50.1356C186.522 63.5938 197.792 74.344 211.299 74.344ZM211.299 66.5481C202.35 66.5481 195.14 59.2445 195.14 50.3818C195.14 41.5191 202.35 34.2976 211.299 34.2976C220.248 34.2976 227.457 41.437 227.457 50.2997C227.457 59.1625 220.331 66.5481 211.299 66.5481ZM249.749 73.1951V48.4123C249.749 40.7805 253.395 34.2976 261.847 34.2976C270.962 34.2976 273.282 40.7805 273.282 48.4944V73.1951H281.9V46.2787C281.9 42.2576 281.237 38.0724 279 34.6258C275.437 29.0456 269.305 26.5017 262.758 26.5017C257.455 26.5017 252.649 28.225 249.334 32.5743H249.169V27.7326H241.131V73.1951H249.749ZM311.649 74.344C325.57 74.344 336.426 63.2656 336.426 50.2997C336.426 36.8415 325.073 26.5017 311.649 26.5017C298.391 26.5017 286.873 36.7594 286.873 50.1356C286.873 63.5938 298.142 74.344 311.649 74.344ZM311.649 66.5481C302.7 66.5481 295.491 59.2445 295.491 50.3818C295.491 41.5191 302.7 34.2976 311.649 34.2976C320.599 34.2976 327.808 41.437 327.808 50.2997C327.808 59.1625 320.681 66.5481 311.649 66.5481ZM362.694 74.344C373.218 74.344 381.919 67.9431 385.316 58.1777H375.704C373.301 63.4297 368.578 66.5481 362.694 66.5481C353.496 66.5481 347.779 58.9983 347.779 50.3818C347.779 41.437 353.414 34.2976 362.86 34.2976C368.992 34.2976 373.218 37.498 375.787 42.8321H385.316C382.748 33.0666 372.638 26.5017 362.777 26.5017C349.188 26.5017 339.161 37.0877 339.161 50.3818C339.161 63.6759 349.022 74.344 362.694 74.344ZM397.167 73.1951V48.4123C397.167 40.7805 400.813 34.2976 409.265 34.2976C418.38 34.2976 420.7 40.7805 420.7 48.4944V73.1951H429.318V46.2787C429.318 42.2576 428.655 38.0724 426.418 34.6258C422.855 29.0456 416.723 26.5017 410.176 26.5017C405.039 26.5017 400.316 28.1429 397.332 32.5743H397.167V12.469H388.549V73.1951H397.167ZM445.146 73.1951V48.3302C445.146 44.2271 446.14 38.9751 450.201 36.9236C451.858 36.0209 454.51 35.2823 456.416 35.2823V26.5017C451.775 26.6658 447.549 27.8967 444.732 31.8357H444.566V27.7326H436.528V73.1951H445.146ZM481.11 74.344C495.031 74.344 505.886 63.2656 505.886 50.2997C505.886 36.8415 494.534 26.5017 481.11 26.5017C467.852 26.5017 456.333 36.7594 456.333 50.1356C456.333 63.5938 467.603 74.344 481.11 74.344ZM481.11 66.5481C472.161 66.5481 464.951 59.2445 464.951 50.3818C464.951 41.5191 472.161 34.2976 481.11 34.2976C490.059 34.2976 497.268 41.437 497.268 50.2997C497.268 59.1625 490.142 66.5481 481.11 66.5481ZM519.643 73.1951V47.8379C519.643 40.2061 522.129 34.2976 530.995 34.2976C534.558 34.2976 537.541 35.5285 539.53 38.5648C541.436 41.6011 541.436 44.4733 541.436 47.9199V73.1951H550.054V47.8379C550.054 40.3702 552.043 34.2976 560.992 34.2976C569.444 34.2976 571.847 40.7805 571.847 47.9199V73.1951H580.465V45.7863C580.465 34.0514 573.919 26.5017 561.738 26.5017C555.026 26.5017 550.137 28.5532 546.574 34.1334C544.17 29.0456 537.707 26.5017 532.321 26.5017C526.272 26.5017 522.957 28.225 519.145 32.6563H518.98V27.7326H511.025V73.1951H519.643ZM608.888 74.344C618.915 74.344 627.45 68.1893 630.93 58.9163H622.312C619.826 63.6759 614.606 66.5481 609.22 66.5481C601.679 66.5481 595.879 61.214 594.138 54.1567H632.173C632.339 52.7616 632.422 51.2845 632.422 49.8894C632.422 37.0877 622.064 26.5017 609.054 26.5017C595.63 26.5017 585.521 37.2518 585.521 50.3818C585.521 63.1015 595.796 74.344 608.888 74.344ZM623.804 47.5917H594.138C594.636 40.124 601.513 34.2976 608.971 34.2976C616.429 34.2976 623.307 40.124 623.804 47.5917Z" fill="black"/>
<path fill-rule="evenodd" clip-rule="evenodd" d="M45 0.497559C69.8528 0.497559 90 20.6447 90 45.4976C90 70.3504 69.8528 90.4976 45 90.4976C20.1472 90.4976 0 70.3504 0 45.4976C0 20.6447 20.1472 0.497559 45 0.497559ZM45.0028 7.42064L45 28.1899C35.4412 28.1899 27.6923 35.9388 27.6923 45.4976C27.6923 55.0563 35.4412 62.8053 45 62.8053V83.5732L45.8739 83.5647C66.4996 83.1002 83.0769 66.2348 83.0769 45.4976C83.0769 24.4692 66.0308 7.42216 45.0028 7.42064ZM45 28.6226C54.3198 28.6226 61.875 36.1778 61.875 45.4976C61.875 54.6055 54.6593 62.0282 45.6326 62.3609L45 62.3726V28.6226Z" fill="black"/>
</g>
<defs>
<clipPath id="clip0_1124_1544">
<rect width="632.812" height="90" fill="white" transform="translate(0 0.497559)"/>
</clipPath>
</defs>
</svg>
