<svg width="372" height="100" viewBox="0 0 372 100" fill="none" xmlns="http://www.w3.org/2000/svg">
<path fill-rule="evenodd" clip-rule="evenodd" d="M13.3559 14.2856C22.088 14.2856 30.7346 16.0056 38.802 19.3472C46.8694 22.6888 54.1996 27.5867 60.3741 33.7612C66.5487 39.9357 71.4466 47.2659 74.7882 55.3333C78.1298 63.4007 79.8497 72.0473 79.8497 80.7794H58.8517C58.8517 74.8048 57.6749 68.8887 55.3885 63.3689C53.1022 57.8491 49.751 52.8337 45.5263 48.6091C41.3016 44.3844 36.2862 41.0332 30.7664 38.7468C25.2466 36.4605 19.3305 35.2837 13.356 35.2837L13.3559 14.2856Z" fill="black"/>
<path fill-rule="evenodd" clip-rule="evenodd" d="M15.0651 14.3101C19.9196 14.3101 23.855 18.2455 23.855 23.1V80.4539H2.85693V14.3101H15.0651Z" fill="black"/>
<path fill-rule="evenodd" clip-rule="evenodd" d="M79.8497 14.6356L79.8497 80.7794H58.8517L58.8517 14.6356H79.8497Z" fill="black"/>
<path d="M101.932 72.0379V32.9961H112.343V41.9974L112.09 40.3706C113.271 37.7919 114.946 35.7675 117.115 34.2975C119.284 32.8033 121.898 32.0562 124.959 32.0562C127.996 32.0562 130.478 32.743 132.406 34.1167C134.358 35.4904 135.804 37.3943 136.744 39.8284C137.684 42.2625 138.154 45.0701 138.154 48.2513V72.0379H127.381V48.9381C127.381 46.1666 126.923 44.0218 126.007 42.5035C125.092 40.9611 123.501 40.1899 121.236 40.1899C118.561 40.1899 116.464 41.3346 114.946 43.6241C113.451 45.9136 112.704 49.4201 112.704 54.1437V72.0379H101.932Z" fill="black"/>
<path d="M165.121 72.9777C161.193 72.9777 157.723 72.1102 154.71 70.375C151.722 68.6398 149.384 66.2418 147.697 63.1812C146.01 60.0964 145.167 56.5416 145.167 52.517C145.167 48.4682 146.01 44.9134 147.697 41.8528C149.384 38.768 151.722 36.37 154.71 34.659C157.723 32.9238 161.193 32.0562 165.121 32.0562C169.074 32.0562 172.544 32.9238 175.533 34.659C178.545 36.37 180.895 38.768 182.582 41.8528C184.269 44.9134 185.112 48.4682 185.112 52.517C185.112 56.5657 184.269 60.1325 182.582 63.2173C180.895 66.278 178.545 68.6759 175.533 70.4111C172.52 72.1222 169.05 72.9777 165.121 72.9777ZM165.158 65.0609C167.833 65.0609 169.941 63.9403 171.484 61.699C173.05 59.4336 173.834 56.3729 173.834 52.517C173.834 48.6369 173.05 45.5762 171.484 43.3349C169.941 41.0936 167.821 39.973 165.121 39.973C162.446 39.973 160.326 41.0936 158.759 43.3349C157.217 45.5762 156.446 48.6369 156.446 52.517C156.446 56.397 157.217 59.4577 158.759 61.699C160.326 63.9403 162.458 65.0609 165.158 65.0609Z" fill="black"/>
<path d="M192.523 72.0379V32.9961H202.934V41.7805L202.5 40.6237C203.729 37.7317 205.465 35.5868 207.706 34.189C209.947 32.7671 212.393 32.0562 215.044 32.0562C215.791 32.0562 216.551 32.1164 217.322 32.2369C218.093 32.3574 218.864 32.5623 219.635 32.8515L218.804 42.0335C217.237 41.5997 215.731 41.3828 214.285 41.3828C213.104 41.3828 211.863 41.5877 210.562 41.9974C209.285 42.4071 208.092 43.1301 206.983 44.1664C205.898 45.1785 205.007 46.6245 204.308 48.5043C203.633 50.36 203.296 52.7339 203.296 55.6258V72.0379H192.523Z" fill="black"/>
<path d="M232.469 72.0379L222.961 32.9961H234.131L240.458 65.6032H239.554L247.073 32.9961H261.388L268.871 65.7116H267.787L274.294 32.9961H284.886L275.342 72.0379H260.376L253.038 37.1171H254.918L247.435 72.0379H232.469Z" fill="black"/>
<path d="M301.985 72.9777C299.502 72.9777 297.213 72.5439 295.116 71.6764C293.02 70.7847 291.333 69.4712 290.055 67.736C288.802 66.0008 288.175 63.8319 288.175 61.2291C288.175 58.4335 288.983 56.0596 290.597 54.1075C292.212 52.1555 294.562 50.6733 297.647 49.6611C300.731 48.6248 304.455 48.1067 308.817 48.1067H314.312L313.661 49.0827V46.8414C313.661 44.2628 313.191 42.3468 312.251 41.0936C311.311 39.8163 309.757 39.1777 307.588 39.1777C305.515 39.1777 303.925 39.732 302.816 40.8406C301.732 41.9251 301.069 43.4795 300.828 45.5039L289.838 43.6241C290.248 41.4551 291.176 39.503 292.622 37.7678C294.092 36.0085 296.116 34.6108 298.695 33.5745C301.274 32.5382 304.443 32.02 308.202 32.02C311.649 32.02 314.565 32.5743 316.951 33.6829C319.337 34.7674 321.144 36.5387 322.373 38.9969C323.626 41.4551 324.253 44.7448 324.253 48.8658V62.1328C324.253 62.9522 324.361 63.4945 324.578 63.7596C324.819 64.0247 325.313 64.1572 326.06 64.1572H327.832V72.0379H322.699C319.879 72.0379 317.734 71.339 316.264 69.9412C314.818 68.5193 314.095 66.4828 314.095 63.8319V61.9882L315.975 62.7112C315.661 63.7475 315.203 64.8561 314.601 66.037C313.998 67.2179 313.155 68.3385 312.07 69.3989C311.01 70.4352 309.66 71.2908 308.022 71.9656C306.383 72.6404 304.371 72.9777 301.985 72.9777ZM305.094 65.6032C306.781 65.6032 308.275 65.2176 309.576 64.4464C310.878 63.6752 311.902 62.5184 312.649 60.976C313.396 59.4095 313.77 57.4695 313.77 55.1559V54.3244H309.215C306.636 54.3244 304.624 54.6618 303.178 55.3366C301.756 56.0114 300.756 56.8429 300.177 57.831C299.599 58.795 299.31 59.7349 299.31 60.6507C299.31 61.3737 299.478 62.1208 299.816 62.892C300.177 63.6631 300.768 64.3138 301.587 64.844C302.431 65.3501 303.599 65.6032 305.094 65.6032Z" fill="black"/>
<path d="M335.496 86.1363V78.2556H342.039C342.569 78.2556 342.954 78.1472 343.195 77.9303C343.461 77.7134 343.702 77.3157 343.918 76.7373L345.907 71.2787L345.292 75.1829L328.302 32.9961H340.34L350.425 64.5187L349.377 64.3741L359.427 32.9961H371.428L353.281 79.7016C352.341 82.1116 351.028 83.7865 349.341 84.7264C347.654 85.6663 345.678 86.1363 343.412 86.1363H335.496Z" fill="black"/>
</svg>
